# xmcd CD database file
#
# Track frame offsets:
#	225
#	18310
#	35815
#	60345
#	66276
#	83620
#	106008
#	128734
#	147112
#	166925
#
# Disc length: 2452 seconds
#
# Revision: 2
# Processed by: cddbd v1.5.2PL0 Copyright (c) Steve Scherf et al.
# Submitted via: CDex 1.72
#
DISCID=7909910a
DTITLE=Friedman, Michael [CDN-95-I Never Knew What Hit Me Until Now-blues) - I Never Knew What Hit Me Until Now
DYEAR=1995
DGENRE=Blues
TTITLE0=Wind Water Fire
TTITLE1=I Never Knew What Hit Me Until Now
TTITLE2=A Perfect Heart
TTITLE3=Game Segue
TTITLE4=Michael Row
TTITLE5=Two Guns, Twin Arrows
TTITLE6=Is it a Game?
TTITLE7=Tied in Knots
TTITLE8=River Swim Mountain Climb
TTITLE9=Love in Mind
EXTD=YEAR: 1995
EXTT0=
EXTT1=
EXTT2=
EXTT3=
EXTT4=
EXTT5=
EXTT6=
EXTT7=
EXTT8=
EXTT9=
PLAYORDER=
